#!OML:ASF H:\ManfredETheater\Project 1\Capture day 1\Session 1\subject.ASF
:FULLY-SPECIFIED
:DEGREES
180
root -5.76907 15.4697 -21.0342 -190.874 -40.3109 -175.997
lowerback 19.4597 -1.33384 -2.16546
upperback -0.206309 -2.35937 0.0164331
thorax -11.095 -1.02757 1.93343
lowerneck -19.6482 -5.35916 -7.4681
upperneck 13.4027 -6.42871 6.65367
head 7.81435 -2.82257 2.61316
rclavicle -5.87906e-014 3.18055e-015
rhumerus -31.3778 11.8279 -84.3036
rradius 72.1233
rwrist -6.57637
rhand -29.9062 6.57379
rfingers 7.12502
rthumb -3.22685 -23.3815
lclavicle -5.87906e-014 3.18055e-015
lhumerus -36.0092 -23.9015 103.726
lradius 109.534
lwrist -7.77697
lhand -35.4176 -14.4966
lfingers 7.12502
lthumb -8.54782 15.3104
rfemur -33.1624 -4.12445 22.7726
rtibia 72.106
rfoot -23.7586 -13.9328
rtoes -27.5997
lfemur -41.4046 -3.87987 -14.6158
ltibia 86.4067
lfoot -22.1778 -16.6228
ltoes -7.27808
181
root -5.82844 15.5778 -21.118 -190.316 -40.5111 -176.091
lowerback 19.1999 -1.3078 -2.1239
upperback -0.249271 -2.29895 0.0677508
thorax -10.998 -0.99972 1.94051
lowerneck -19.615 -5.4457 -7.51855
upperneck 13.199 -6.50078 6.54658
head 7.74386 -2.87008 2.57634
rclavicle 9.99545e-014 -1.35174e-014
rhumerus -31.2229 11.4498 -83.8228
rradius 72.4591
rwrist -6.87907
rhand -29.7546 6.38269
rfingers 7.12502
rthumb -3.08044 -23.5748
lclavicle 9.99545e-014 -1.35174e-014
lhumerus -36.4675 -23.0806 103.275
lradius 108.704
lwrist -8.32995
lhand -35.7169 -14.6274
lfingers 7.12502
lthumb -8.83661 15.1675
rfemur -32.6064 -3.9293 22.7245
rtibia 70.9765
rfoot -23.6987 -14.2252
rtoes -27.1544
lfemur -41.1595 -3.86404 -15.2283
ltibia 84.0275
lfoot -22.6745 -16.2227
ltoes -7.01494
182
root -5.8881 15.6853 -21.2014 -189.8 -40.6603 -176.133
lowerback 18.92 -1.26146 -2.06077
upperback -0.286195 -2.20491 0.136638
thorax -10.8841 -0.957098 1.9448
lowerneck -19.5509 -5.5385 -7.57978
upperneck 12.9901 -6.58755 6.4714
head 7.66925 -2.92289 2.55065
rclavicle -4.24568e-014 -7.55382e-015
rhumerus -31.1182 10.9906 -83.3595
rradius 72.77
rwrist -7.20039
rhand -29.6139 6.1251
rfingers 7.12502
rthumb -2.94463 -23.8343
lclavicle -4.24568e-014 -7.55382e-015
lhumerus -36.9095 -22.2643 102.795
lradius 107.657
lwrist -8.54236
lhand -35.8512 -14.609
lfingers 7.12502
lthumb -8.96623 15.1805
rfemur -32.0438 -3.67921 22.732
rtibia 69.8211
rfoot -23.6092 -14.5061
rtoes -26.6655
lfemur -40.8145 -3.84795 -15.7325
ltibia 81.6034
lfoot -23.0325 -15.6155
ltoes -6.50148
183
root -5.94895 15.7917 -21.2837 -189.291 -40.7734 -176.171
lowerback 18.6183 -1.19718 -2.00004
upperback -0.321865 -2.08748 0.207891
thorax -10.7572 -0.903423 1.94641
lowerneck -19.4526 -5.63725 -7.6511
upperneck 12.7777 -6.68836 6.42513
head 7.59036 -2.98099 2.53514
rclavicle -5.01714e-014 -8.74653e-015
rhumerus -31.0631 10.4634 -82.9163
rradius 73.0553
rwrist -7.52973
rhand -29.4825 5.82153
rfingers 7.12502
rthumb -2.81766 -24.1396
lclavicle -5.01714e-014 -8.74653e-015
lhumerus -37.3372 -21.4588 102.295
lradius 106.4
lwrist -8.43477
lhand -35.8313 -14.4625
lfingers 7.12502
lthumb -8.94705 15.3278
rfemur -31.4806 -3.40436 22.7418
rtibia 68.6504
rfoot -23.4973 -14.7605
rtoes -26.1591
lfemur -40.3671 -3.85453 -16.1761
ltibia 79.1682
lfoot -23.2436 -14.7798
ltoes -5.67429
184
root -6.01076 15.8958 -21.3655 -188.802 -40.8557 -176.199
lowerback 18.3053 -1.12039 -1.94196
upperback -0.359154 -1.95413 0.281696
thorax -10.626 -0.841915 1.94843
lowerneck -19.3102 -5.73822 -7.7281
upperneck 12.5633 -6.79975 6.4058
head 7.50569 -3.0429 2.5291
rclavicle 1.20464e-013 5.96354e-015
rhumerus -31.0549 9.89262 -82.5045
rradius 73.3032
rwrist -7.84709
rhand -29.3713 5.48231
rfingers 7.12502
rthumb -2.71026 -24.4802
lclavicle 1.20464e-013 5.96354e-015
lhumerus -37.7524 -20.6607 101.774
lradius 104.945
lwrist -8.04758
lhand -35.6826 -14.2325
lfingers 7.12502
lthumb -8.80354 15.5639
rfemur -30.9103 -3.1152 22.7595
rtibia 67.4746
rfoot -23.3721 -14.9903
rtoes -25.6474
lfemur -39.813 -3.88652 -16.5514
ltibia 76.7864
lfoot -23.3149 -13.7939
ltoes -4.41131
185
root -6.07365 15.9968 -21.4468 -188.338 -40.9074 -176.213
lowerback 17.9811 -1.03499 -1.88275
upperback -0.398875 -1.80924 0.358179
thorax -10.4916 -0.77477 1.95023
lowerneck -19.1355 -5.83583 -7.81677
upperneck 12.3614 -6.91314 6.41839
head 7.42186 -3.10412 2.53605
rclavicle 1.04393e-013 -1.98785e-015
rhumerus -31.0859 9.30273 -82.129
rradius 73.5047
rwrist -8.14297
rhand -29.3027 5.12959
rfingers 7.12502
rthumb -2.64407 -24.8338
lclavicle 1.04393e-013 -1.98785e-015
lhumerus -38.1532 -19.8701 101.239
lradius 103.305
lwrist -7.42473
lhand -35.4524 -13.9186
lfingers 7.12502
lthumb -8.58137 15.887
rfemur -30.3338 -2.82201 22.7869
rtibia 66.3033
rfoot -23.2422 -15.1882
rtoes -25.1244
lfemur -39.1622 -3.9409 -16.8596
ltibia 74.5263
lfoot -23.262 -12.7733
ltoes -2.61435
186
root -6.1378 16.0943 -21.5277 -187.909 -40.9287 -176.211
lowerback 17.6519 -0.945853 -1.82262
upperback -0.444636 -1.65932 0.43826
thorax -10.3609 -0.704816 1.95507
lowerneck -18.919 -5.92514 -7.90319
upperneck 12.1752 -7.02268 6.44254
head 7.33662 -3.16322 2.54795
rclavicle 4.40494e-014 -2.22639e-014
rhumerus -31.1526 8.72224 -81.7968
rradius 73.6477
rwrist -8.41781
rhand -29.2905 4.77649
rfingers 7.12502
rthumb -2.6323 -25.187
lclavicle 4.40494e-014 -2.22639e-014
lhumerus -38.5484 -19.0722 100.689
lradius 101.498
lwrist -6.6257
lhand -35.144 -13.5476
lfingers 7.12502
lthumb -8.28376 16.27
rfemur -29.7437 -2.53367 22.8249
rtibia 65.1423
rfoot -23.1164 -15.3539
rtoes -24.5974
lfemur -38.4197 -4.01391 -17.1057
ltibia 72.4436
lfoot -23.1276 -11.7838
ltoes -0.344537
187
root -6.20324 16.188 -21.6081 -187.503 -40.9235 -176.202
lowerback 17.313 -0.857863 -1.76608
upperback -0.496302 -1.5119 0.520003
thorax -10.231 -0.63551 1.96526
lowerneck -18.6755 -6.00086 -7.98461
upperneck 12.015 -7.12 6.47134
head 7.25487 -3.21634 2.56288
rclavicle -5.58833e-014 1.43125e-014
rhumerus -31.2414 8.16723 -81.5136
rradius 73.7214
rwrist -8.66659
rhand -29.3402 4.43923
rfingers 7.12502
rthumb -2.68029 -25.5237
lclavicle -5.58833e-014 1.43125e-014
lhumerus -38.9322 -18.2631 100.126
lradius 99.5469
lwrist -5.70743
lhand -34.7828 -13.1199
lfingers 7.12502
lthumb -7.93515 16.7112
rfemur -29.1455 -2.26099 22.8637
rtibia 63.9954
rfoot -22.997 -15.4799
rtoes -24.0816
lfemur -37.6067 -4.10946 -17.3033
ltibia 70.5679
lfoot -22.9967 -10.8301
ltoes 2.10687
188
root -6.27008 16.2779 -21.688 -187.114 -40.8942 -176.202
lowerback 16.971 -0.771745 -1.71987
upperback -0.556246 -1.36977 0.599815
thorax -10.1079 -0.567807 1.98163
lowerneck -18.4141 -6.06321 -8.06669
upperneck 11.8895 -7.20323 6.50286
head 7.18082 -3.2628 2.58108
rclavicle -2.2239e-015 -8.74653e-015
rhumerus -31.348 7.64808 -81.2772
rradius 73.7224
rwrist -8.89246
rhand -29.4522 4.12521
rfingers 7.12502
rthumb -2.78839 -25.8363
lclavicle -2.2239e-015 -8.74653e-015
lhumerus -39.3088 -17.4387 99.5528
lradius 97.4727
lwrist -4.73204
lhand -34.3975 -12.6401
lfingers 7.12502
lthumb -7.56329 17.2047
rfemur -28.5369 -2.01092 22.8872
rtibia 62.8637
rfoot -22.8893 -15.5577
rtoes -23.5768
lfemur -36.7381 -4.22659 -17.4732
ltibia 68.8939
lfoot -22.91 -9.97451
ltoes 4.65637
189
root -6.3378 16.365 -21.7679 -186.755 -40.8678 -176.208
lowerback 16.6329 -0.697181 -1.69168
upperback -0.608308 -1.2474 0.68227
thorax -9.97683 -0.508751 2.01698
lowerneck -18.1774 -6.11091 -8.13744
upperneck 11.8066 -7.26727 6.51788
head 7.12244 -3.30034 2.59407
rclavicle 2.90101e-014 -6.75868e-015
rhumerus -31.4307 7.17268 -81.0821
rradius 73.6361
rwrist -9.0947
rhand -29.6083 3.81846
rfingers 7.12502
rthumb -2.93916 -26.141
lclavicle 2.90101e-014 -6.75868e-015
lhumerus -39.6491 -16.5932 98.9627
lradius 95.2947
lwrist -3.75961
lhand -33.962 -12.1147
lfingers 7.12502
lthumb -7.1429 17.7448
rfemur -27.8959 -1.7975 22.8973
rtibia 61.7442
rfoot -22.7995 -15.5961
rtoes -23.0808
lfemur -35.8156 -4.37542 -17.6216
ltibia 67.3899
lfoot -22.9127 -9.23262
ltoes 7.03515
190
root -6.40595 16.4489 -21.847 -186.41 -40.8291 -176.22
lowerback 16.292 -0.63282 -1.67739
upperback -0.658745 -1.14176 0.766535
thorax -9.84134 -0.456966 2.06699
lowerneck -17.9559 -6.14184 -8.18763
upperneck 11.7513 -7.31068 6.51158
head 7.07244 -3.32851 2.59915
rclavicle -3.3048e-015 -1.74931e-014
rhumerus -31.4845 6.74284 -80.9321
rradius 73.4626
rwrist -9.26822
rhand -29.7905 3.5177
rfingers 7.12502
rthumb -3.11516 -26.4393
lclavicle -3.3048e-015 -1.74931e-014
lhumerus -39.9556 -15.7208 98.3506
lradius 93.0333
lwrist -2.85779
lhand -33.5041 -11.5304
lfingers 7.12502
lthumb -6.70087 18.3435
rfemur -27.2488 -1.6081 22.8956
rtibia 60.6379
rfoot -22.7181 -15.5907
rtoes -22.6102
lfemur -34.8859 -4.5428 -17.7465
ltibia 66.0198
lfoot -22.9937 -8.62557
ltoes 8.94672
191
root -6.47403 16.5302 -21.9254 -186.058 -40.7825 -176.262
lowerback 15.956 -0.578186 -1.69385
upperback -0.708443 -1.05619 0.844173
thorax -9.70655 -0.413371 2.13286
lowerneck -17.7655 -6.15608 -8.21294
upperneck 11.7248 -7.33329 6.48405
head 7.03364 -3.34667 2.59532
rclavicle 3.96327e-015 1.59028e-014
rhumerus -31.509 6.34346 -80.8321
rradius 73.2119
rwrist -9.40655
rhand -29.9761 3.21666
rfingers 7.12502
rthumb -3.2944 -26.7376
lclavicle 3.96327e-015 1.59028e-014
lhumerus -40.2301 -14.8236 97.7123
lradius 90.7072
lwrist -2.06647
lhand -32.9802 -10.9287
lfingers 7.12502
lthumb -6.19511 18.9608
rfemur -26.6011 -1.44195 22.8601
rtibia 59.5449
rfoot -22.6396 -15.5444
rtoes -22.1836
lfemur -33.9746 -4.72136 -17.8744
ltibia 64.7444
lfoot -23.1375 -8.12625
ltoes 10.3591
192
root -6.5409 16.6085 -22.0026 -185.704 -40.727 -176.312
lowerback 15.6301 -0.532437 -1.72531
upperback -0.757538 -0.986001 0.91902
thorax -9.57602 -0.376458 2.20858
lowerneck -17.6115 -6.15736 -8.20966
upperneck 11.7132 -7.34 6.4367
head 7.00263 -3.35682 2.58173
rclavicle 3.75827e-015 1.25234e-014
rhumerus -31.4919 5.96351 -80.7789
rradius 72.8833
rwrist -9.50146
rhand -30.1692 2.9238
rfingers 7.12502
rthumb -3.48082 -27.0275
lclavicle 3.75827e-015 1.25234e-014
lhumerus -40.4748 -13.9208 97.0545
lradius 88.3425
lwrist -1.39805
lhand -32.474 -10.3149
lfingers 7.12502
lthumb -5.70634 19.5883
rfemur -25.9715 -1.28655 22.8141
rtibia 58.4685
rfoot -22.5578 -15.4645
rtoes -21.7949
lfemur -33.1232 -4.89849 -17.9862
ltibia 63.544
lfoot -23.3016 -7.72143
ltoes 11.3042
